<svg width="14" height="14" viewBox="0 0 14 14" fill="none" xmlns="http://www.w3.org/2000/svg">
<g clip-path="url(#clip0_220_198)">
<path d="M7 0.875C5.78859 0.875 4.60439 1.23423 3.59714 1.90725C2.58988 2.58027 1.80483 3.53687 1.34124 4.65606C0.877654 5.77526 0.756358 7.0068 0.992693 8.19493C1.22903 9.38306 1.81238 10.4744 2.66897 11.331C3.52557 12.1876 4.61694 12.771 5.80508 13.0073C6.99321 13.2436 8.22474 13.1224 9.34394 12.6588C10.4631 12.1952 11.4197 11.4101 12.0928 10.4029C12.7658 9.39562 13.125 8.21141 13.125 7C13.125 5.37555 12.4797 3.81763 11.331 2.66897C10.1824 1.52031 8.62445 0.875 7 0.875ZM7 12.25C5.96165 12.25 4.94662 11.9421 4.08326 11.3652C3.2199 10.7883 2.547 9.9684 2.14964 9.00909C1.75228 8.04978 1.64831 6.99418 1.85088 5.97578C2.05345 4.95738 2.55347 4.02192 3.28769 3.28769C4.02192 2.55346 4.95738 2.05345 5.97578 1.85088C6.99418 1.6483 8.04978 1.75227 9.00909 2.14963C9.9684 2.54699 10.7883 3.2199 11.3652 4.08326C11.9421 4.94662 12.25 5.96165 12.25 7C12.25 8.39239 11.6969 9.72775 10.7123 10.7123C9.72775 11.6969 8.39239 12.25 7 12.25Z" fill="white"/>
<path d="M7 10.9375C7.36244 10.9375 7.65625 10.6437 7.65625 10.2812C7.65625 9.91881 7.36244 9.625 7 9.625C6.63756 9.625 6.34375 9.91881 6.34375 10.2812C6.34375 10.6437 6.63756 10.9375 7 10.9375Z" fill="white"/>
<path d="M7.4375 3.5H6.78125C6.52255 3.49943 6.26628 3.54996 6.02716 3.64869C5.78804 3.74743 5.57078 3.89242 5.38785 4.07535C5.20492 4.25828 5.05993 4.47554 4.96119 4.71466C4.86246 4.95378 4.81193 5.21005 4.8125 5.46875V5.6875H5.6875V5.46875C5.6875 5.17867 5.80274 4.90047 6.00786 4.69536C6.21297 4.49024 6.49117 4.375 6.78125 4.375H7.4375C7.72758 4.375 8.00578 4.49024 8.2109 4.69536C8.41602 4.90047 8.53125 5.17867 8.53125 5.46875C8.53125 5.75883 8.41602 6.03703 8.2109 6.24215C8.00578 6.44727 7.72758 6.5625 7.4375 6.5625H6.5625V8.53125H7.4375V7.4375C7.95965 7.4375 8.46041 7.23008 8.82962 6.86087C9.19883 6.49166 9.40625 5.9909 9.40625 5.46875C9.40625 4.94661 9.19883 4.44585 8.82962 4.07664C8.46041 3.70743 7.95965 3.5 7.4375 3.5Z" fill="white"/>
</g>
<defs>
<clipPath id="clip0_220_198">
<rect width="14" height="14" fill="white"/>
</clipPath>
</defs>
</svg>
