<svg width="16" height="15" viewBox="0 0 16 15" fill="none" xmlns="http://www.w3.org/2000/svg">
<g clip-path="url(#clip0_220_226)">
<path d="M16.8304 3.02944C16.248 3.27284 15.6208 3.4351 14.9648 3.51022C15.6368 3.13161 16.1488 2.53364 16.392 1.82449C15.7648 2.17005 15.0704 2.42546 14.3312 2.56068C13.7392 1.96872 12.8944 1.59912 11.96 1.59912C10.1648 1.59912 8.712 2.96334 8.712 4.64907C8.712 4.88946 8.7408 5.12084 8.7952 5.3432C6.0976 5.21699 3.704 4.00302 2.1008 2.15803C1.8224 2.60876 1.6624 3.13161 1.6624 3.69052C1.6624 4.74823 2.2352 5.68275 3.1056 6.22964C2.5744 6.21461 2.072 6.07639 1.6336 5.84802C1.6336 5.86004 1.6336 5.87206 1.6336 5.88708C1.6336 7.36548 2.7536 8.59748 4.2384 8.87694C3.9664 8.94605 3.6784 8.98511 3.384 8.98511C3.176 8.98511 2.9712 8.96708 2.7728 8.93102C3.1856 10.142 4.3856 11.0254 5.8064 11.0495C4.696 11.8668 3.2944 12.3536 1.7744 12.3536C1.512 12.3536 1.2528 12.3386 1 12.3115C2.4368 13.1769 4.1456 13.6817 5.9792 13.6817C11.9536 13.6817 15.2208 9.03619 15.2208 5.00365C15.2208 4.87143 15.2176 4.73922 15.2112 4.61001C15.8448 4.17731 16.3952 3.63943 16.8304 3.02944Z" fill="white"/>
</g>
<defs>
<clipPath id="clip0_220_226">
<rect width="16" height="13.522" fill="white" transform="translate(0 0.87793)"/>
</clipPath>
</defs>
</svg>
