<svg width="16" height="16" viewBox="0 0 16 16" fill="none" xmlns="http://www.w3.org/2000/svg">
<path d="M14.759 0H1.19668C0.531856 0 0 0.500813 0 1.08509V13.9393C0 14.5236 0.531856 15.0244 1.19668 15.0244H14.8033C15.4681 15.0244 16 14.5236 16 13.9393V1.08509C15.9557 0.500813 15.4238 0 14.759 0ZM4.74238 12.8125H2.34903V5.63415H4.69806V12.8125H4.74238ZM3.54571 4.63252C2.79224 4.63252 2.17175 4.04824 2.17175 3.33875C2.17175 2.62927 2.79224 2.08672 3.54571 2.08672C4.29917 2.08672 4.91967 2.671 4.91967 3.38049C4.91967 4.08997 4.29917 4.63252 3.54571 4.63252ZM13.6066 12.8125H11.2576V9.30678C11.2576 8.47209 11.2576 7.38699 10.0166 7.38699C8.77562 7.38699 8.59834 8.30515 8.59834 9.22331V12.7707H6.20499V5.63415H8.46537V6.59404H8.5097C8.81995 6.00976 9.61773 5.42547 10.7701 5.42547C13.1634 5.42547 13.6066 6.92791 13.6066 8.8477V12.8125Z" fill="white"/>
</svg>
