<svg width="10" height="10" viewBox="0 0 10 10" fill="none" xmlns="http://www.w3.org/2000/svg">
<mask id="mask0_8_2199" style="mask-type:alpha" maskUnits="userSpaceOnUse" x="0" y="0" width="10" height="10">
<rect width="10" height="10" fill="#D9D9D9"/>
</mask>
<g mask="url(#mask0_8_2199)">
<path d="M4.41634 6.91683L7.35384 3.97933L6.77051 3.396L4.41634 5.75016L3.22884 4.56266L2.64551 5.146L4.41634 6.91683ZM4.99967 9.16683C4.42329 9.16683 3.88162 9.05739 3.37467 8.8385C2.86773 8.61989 2.42676 8.32308 2.05176 7.94808C1.67676 7.57308 1.37995 7.13211 1.16134 6.62516C0.942452 6.11822 0.833008 5.57655 0.833008 5.00016C0.833008 4.42377 0.942452 3.88211 1.16134 3.37516C1.37995 2.86822 1.67676 2.42725 2.05176 2.05225C2.42676 1.67725 2.86773 1.3803 3.37467 1.16141C3.88162 0.942802 4.42329 0.833496 4.99967 0.833496C5.57606 0.833496 6.11773 0.942802 6.62467 1.16141C7.13162 1.3803 7.57259 1.67725 7.94759 2.05225C8.32259 2.42725 8.6194 2.86822 8.83801 3.37516C9.0569 3.88211 9.16634 4.42377 9.16634 5.00016C9.16634 5.57655 9.0569 6.11822 8.83801 6.62516C8.6194 7.13211 8.32259 7.57308 7.94759 7.94808C7.57259 8.32308 7.13162 8.61989 6.62467 8.8385C6.11773 9.05739 5.57606 9.16683 4.99967 9.16683Z" fill="#F2F2F3"/>
</g>
</svg>
