<svg width="52" height="52" viewBox="0 0 52 52" fill="none" xmlns="http://www.w3.org/2000/svg">
<path d="M26 0.625C20.9813 0.625 16.0753 2.11322 11.9024 4.90146C7.72952 7.6897 4.47714 11.6527 2.55657 16.2894C0.635995 20.9261 0.133485 26.0281 1.11258 30.9504C2.09168 35.8727 4.50842 40.3941 8.05718 43.9428C11.6059 47.4916 16.1273 49.9083 21.0496 50.8874C25.9719 51.8665 31.0739 51.364 35.7106 49.4434C40.3473 47.5229 44.3103 44.2705 47.0985 40.0976C49.8868 35.9247 51.375 31.0187 51.375 26C51.375 19.2701 48.7016 12.8159 43.9428 8.05716C39.1841 3.29843 32.7299 0.625 26 0.625ZM22.375 36.1333L13.3125 27.0708L16.1955 24.1875L22.375 30.3667L35.8056 16.9375L38.6978 19.8119L22.375 36.1333Z" fill="#FEC66F"/>
</svg>
