<svg width="16" height="16" viewBox="0 0 16 16" fill="none" xmlns="http://www.w3.org/2000/svg">
<path d="M5.33397 7.5122C5.33397 6.12929 6.52756 5.00793 8.00032 5.00793C9.47308 5.00793 10.6673 6.12929 10.6673 7.5122C10.6673 8.8951 9.47308 10.0165 8.00032 10.0165C6.52756 10.0165 5.33397 8.8951 5.33397 7.5122ZM3.89225 7.5122C3.89225 9.64265 5.73143 11.3696 8.00032 11.3696C10.2692 11.3696 12.1084 9.64265 12.1084 7.5122C12.1084 5.38174 10.2692 3.65477 8.00032 3.65477C5.73143 3.65477 3.89225 5.38174 3.89225 7.5122ZM11.311 3.50182C11.3108 3.99969 11.7404 4.40345 12.2706 4.40365C12.8008 4.40385 13.2308 4.00041 13.2311 3.50255C13.2313 3.00468 12.8016 2.60092 12.2714 2.60072C11.7414 2.60095 11.3114 3.0042 11.311 3.50182ZM4.76819 13.6269C3.98819 13.5936 3.56424 13.4716 3.2825 13.3685C2.90898 13.232 2.64247 13.0694 2.36227 12.8066C2.08207 12.5439 1.90862 12.2939 1.76385 11.9431C1.65402 11.6787 1.52409 11.2805 1.48864 10.5481C1.44985 9.75624 1.44211 9.51837 1.44211 7.51226C1.44211 5.50614 1.45049 5.26893 1.48864 4.47643C1.52416 3.74402 1.65504 3.34659 1.76385 3.08138C1.90926 2.73065 2.08245 2.48041 2.36227 2.2173C2.64209 1.95419 2.90834 1.79133 3.2825 1.65539C3.56411 1.55226 3.98819 1.43026 4.76819 1.39697C5.61149 1.36055 5.86481 1.35328 8.00032 1.35328C10.1358 1.35328 10.3894 1.36115 11.2334 1.39697C12.0134 1.43032 12.4367 1.55322 12.7191 1.65539C13.0926 1.79133 13.3591 1.95455 13.6393 2.2173C13.9195 2.48005 14.0923 2.73065 14.2378 3.08138C14.3476 3.34581 14.4775 3.74402 14.513 4.47643C14.5518 5.26893 14.5595 5.50614 14.5595 7.51226C14.5595 9.51837 14.5518 9.75558 14.513 10.5481C14.4774 11.2805 14.3469 11.6786 14.2378 11.9431C14.0923 12.2939 13.9191 12.5441 13.6393 12.8066C13.3595 13.0691 13.0926 13.232 12.7191 13.3685C12.4375 13.4716 12.0134 13.5936 11.2334 13.6269C10.3901 13.6634 10.1368 13.6706 8.00032 13.6706C5.86385 13.6706 5.61123 13.6634 4.76819 13.6269ZM4.70195 0.0454939C3.85027 0.081913 3.26829 0.208719 2.76005 0.39442C2.23369 0.586192 1.7881 0.843469 1.34284 1.26091C0.897572 1.67834 0.624281 2.0974 0.420049 2.59165C0.222281 3.06918 0.0872355 3.61535 0.0484499 4.41507C0.00902436 5.21605 0 5.47212 0 7.5122C0 9.55227 0.00902436 9.80834 0.0484499 10.6093C0.0872355 11.4091 0.222281 11.9552 0.420049 12.4327C0.624281 12.9267 0.897636 13.3462 1.34284 13.7635C1.78804 14.1807 2.23369 14.4377 2.76005 14.63C3.26925 14.8157 3.85027 14.9425 4.70195 14.9789C5.55542 15.0153 5.82769 15.0244 8.00032 15.0244C10.173 15.0244 10.4457 15.0159 11.2987 14.9789C12.1504 14.9425 12.732 14.8157 13.2406 14.63C13.7666 14.4377 14.2125 14.1809 14.6578 13.7635C15.1031 13.346 15.3758 12.9267 15.5806 12.4327C15.7784 11.9552 15.914 11.409 15.9522 10.6093C15.991 9.80774 16 9.55227 16 7.5122C16 5.47212 15.991 5.21605 15.9522 4.41507C15.9134 3.61529 15.7784 3.06888 15.5806 2.59165C15.3758 2.09771 15.1024 1.67901 14.6578 1.26091C14.2132 0.842808 13.7666 0.586192 13.2412 0.39442C12.732 0.208719 12.1504 0.081312 11.2993 0.0454939C10.4463 0.00907473 10.1736 0 8.00096 0C5.82833 0 5.55542 0.00847376 4.70195 0.0454939Z" fill="white"/>
</svg>
