<svg width="16" height="16" viewBox="0 0 16 16" fill="none" xmlns="http://www.w3.org/2000/svg">
<path d="M15.1169 0H0.883125C0.648906 0 0.424279 0.0873699 0.258661 0.242889C0.0930433 0.398409 0 0.609338 0 0.829276L0 14.1951C0 14.4151 0.0930433 14.626 0.258661 14.7815C0.424279 14.937 0.648906 15.0244 0.883125 15.0244H8.54688V9.21418H6.46875V6.93998H8.54688V5.26734C8.54688 3.32679 9.80906 2.27009 11.6531 2.27009C12.5359 2.27009 13.295 2.33171 13.5156 2.35812V4.38612H12.2437C11.2406 4.38612 11.0463 4.83363 11.0463 5.49065V6.93998H13.4444L13.1319 9.21418H11.0463V15.0244H15.1163C15.2323 15.0245 15.3472 15.0031 15.4544 14.9614C15.5616 14.9198 15.659 14.8587 15.7411 14.7817C15.8232 14.7047 15.8883 14.6133 15.9327 14.5126C15.9771 14.412 16 14.3041 16 14.1951V0.829276C16 0.609338 15.907 0.398409 15.7413 0.242889C15.5757 0.0873699 15.3511 0 15.1169 0Z" fill="white"/>
<path d="M11.0469 15.0245V9.2143H13.1328L13.4453 6.9401H11.0469V5.49165C11.0469 4.83463 11.2406 4.38713 12.2444 4.38713H13.5156V2.35854C13.2944 2.33096 12.5353 2.27051 11.6531 2.27051C9.80937 2.27051 8.54688 3.32691 8.54688 5.26776V6.94039H6.46875V9.2143H8.54688V15.0245H11.0469Z" fill="black"/>
</svg>
